<?xml version="1.0" encoding="UTF-8"?>
<svg stroke="current" fill="current" viewBox="0 0 100 100" version="1.1" xmlns="http://www.w3.org/2000/svg" xmlns:xlink="http://www.w3.org/1999/xlink">
    <title>Book</title>
    <defs></defs>
    <g id="59.-Book" stroke-width="1" fill-rule="evenodd" stroke-linecap="round" stroke-linejoin="round">
        <path d="M95.063447,8.94270835 L95.063447,86.7792747 L60.1711267,86.7792734 C54.3194659,86.7792734 49.5757576,91.5157844 49.5757576,97.3834886 L49.5757576,90.7303866 L49.5757576,89.278955 C49.5757576,83.9098172 53.916403,79.5757576 59.2708605,79.5757576 L88.3636364,79.5757576 L88.3636364,8.94270834 L95.063447,8.94270835 Z" id="Layer-1" stroke-width="4"></path>
        <path d="M49.5757576,11.6938381 C49.5757576,6.34965654 53.9131173,2 59.2635217,2 L88.3636364,2 L88.3636364,79.5757576 L59.2708605,79.5757576 C53.916403,79.5757576 49.5757576,83.9098172 49.5757576,89.278955 L49.5757576,90.7303866 L49.5757576,11.6938381 Z" id="Layer-2" stroke-width="4"></path>
        <path d="M4.08806818,8.94270835 L4.08806818,86.7792747 L38.9803885,86.7792734 C44.8320493,86.7792734 49.5757576,91.5157844 49.5757576,97.3834886 L49.5757576,90.7303866 L49.5757576,89.278955 C49.5757576,83.9098172 45.2351121,79.5757576 39.8806546,79.5757576 L10.7878788,79.5757576 L10.7878788,8.94270834 L4.08806818,8.94270835 L4.08806818,8.94270835 Z" id="Layer-3" stroke-width="4"></path>
        <path d="M49.5757576,11.6938381 C49.5757576,6.34965654 45.2383978,2 39.8879934,2 L10.7878788,2 L10.7878788,79.5757576 L39.8806546,79.5757576 C45.2351121,79.5757576 49.5757576,83.9098172 49.5757576,89.278955 L49.5757576,90.7303866 L49.5757576,11.6938381 L49.5757576,11.6938381 Z" id="Layer-4" stroke-width="4"></path>
    </g>
</svg>